<?xml version="1.0" encoding="utf-8"?>
<!-- Generator: Adobe Illustrator 19.0.0, SVG Export Plug-In . SVG Version: 6.00 Build 0)  -->
<svg version="1.1" id="Calque_1" xmlns="http://www.w3.org/2000/svg" xmlns:xlink="http://www.w3.org/1999/xlink" x="0px" y="0px"
	 viewBox="50 6 150 40" style="enable-background:new 50 6 150 40;" xml:space="preserve">
<style type="text/css">
	.st0{fill:#FFFFFF;}
</style>
<g>
	<path id="XMLID_11_" class="st0" d="M170.2,28.8c-0.2,0-0.4,0-0.4,0c-0.4,0-0.9,0-1.3,0c-0.2,0-0.4,0.2-0.4,0.4
		c0,0.2,0.2,0.6,0.2,0.9c0.4,1.1,1.1,2.1,1.9,3.2c0.2,0.2,0.4,0.6,0.6,0.9c-0.2,0.2-0.4,0.4-0.9,0.6c-1.1,0.4-2.3,0.9-3.4,1.3
		c-0.9,0.4-1.9,0.6-2.8,1.1c-0.2,0-0.4,0.2-0.6,0.2c0-0.2,0-0.2-0.2-0.2c-0.2-0.6-0.2-1.3-0.4-1.9c0-0.6-0.2-1.5-0.2-2.1
		c0-0.4-0.2-0.9,0-1.3c0-0.9,0-1.7,0-2.6c0-0.4,0-0.6-0.4-0.6c-0.6,0-1.3,0-1.9,0c-0.2,0-0.4,0.2-0.4,0.4c-0.2,0.9-0.4,1.5-0.9,2.1
		c-0.4,1.1-1.1,1.9-1.7,2.8c-0.6,0.9-1.3,1.7-2.1,2.3c-0.2,0.2-0.4,0.2-0.6,0.4c0-0.2,0-0.4,0-0.6c0-0.6,0.2-1.3,0.2-1.9
		c0.2-1.7,0.4-3.2,0.4-4.9V29c0-0.2-0.2-0.4-0.4-0.4c-0.6-0.2-1.3-0.2-1.9,0h-0.2c0,0,0,0-0.2,0c0.2-0.2,0.4-0.2,0.6-0.4
		c0.4-0.2,0.9-0.2,1.3-0.4c0.4-0.2,0.6-0.4,0.4-0.9c0-0.4-0.2-0.9-0.2-1.5c-0.2-0.9-0.6-1.9-0.9-2.8c0-0.2,0-0.4-0.2-0.4
		c-0.2-0.9-0.6-1.7-1.3-2.3c0,0-0.2-0.2-0.2-0.4c0.2,0,0.2-0.2,0.4-0.2c0.6-0.2,1.5-0.4,2.3-0.6c0.4-0.2,0.6-0.2,1.1-0.4
		c0.4-0.2,0.9-0.2,1.1-0.4c0.2,0,0.4,0,0.6,0c0.6,0,1.3,0,1.9,0c0.2,0,0.2,0,0.4,0.2c0,0.2,0,0.6,0,0.9c0,0.9,0,1.7,0,2.8
		s-0.2,2.1-0.2,3.2c0,0.2,0,0.4,0,0.6c0,0.4,0.2,0.9,0.9,0.6c0.6,0,1.3-0.2,1.7-0.4c0.2,0,0.4-0.2,0.4-0.4c0-0.2,0.2-0.4,0.2-0.6
		c0.4-1.1,0.9-2.1,1.3-3.2c0.2-0.4,0.4-0.9,0.6-1.1c0.6-0.9,1.3-1.5,1.9-2.3c0.2-0.2,0.4-0.4,0.6-0.6c0.2,0.4,0,0.6,0,1.1
		c0,0.9-0.2,1.7-0.4,2.6c0,0.6,0,1.3,0,1.9c0,0.2,0,0.6,0.2,0.9l0.2,0.2c0.4,0,0.9,0,1.3-0.2c0.2-0.2,0.6-0.2,0.9-0.2
		c0.3,0,0.2,0,0.4,0C170.2,25,169.8,26.9,170.2,28.8z"/>
	<path id="XMLID_10_" class="st0" d="M100.6,26.5c0,0.2,0.2,0.2,0.4,0.4c0.6,0.4,1.5,0.6,2.1,1.1c0.6,0.4,1.3,0.6,1.9,1.1
		c0.4,0.2,0.6,0.6,1.1,0.9c0.4,0.2,0.6,0.6,1.1,1.1c0.2,0.2,0.2,0.4,0.4,0.6c0.4,0.4,0.6,0.9,1.1,1.3c0.4,0.6,1.1,1.3,1.5,1.9
		c0.2,0.2,0.4,0.6,0.6,0.9c0,0.2,0,0.2,0.2,0.4c-0.2,0-0.2,0-0.2,0.2c-1.5,0.4-3,0.9-4.5,1.3c-0.4,0-0.6,0.2-1.1,0.2
		c-0.4,0-0.4,0-0.4-0.2c-0.9-2.3-2.1-4.3-3.6-6.2c-0.6-1.1-1.7-1.9-2.6-2.8c-0.2-0.2-0.4-0.2-0.6,0.2c-0.2,0.4-0.4,0.9-0.6,1.3
		c-0.4,0.9-0.9,1.5-1.3,2.3c-0.4,0.9-1.1,1.7-1.7,2.6c-0.6,0.9-1.3,1.7-2.1,2.6c0,0-0.2,0.2-0.4,0.2v-0.2c0.4-1.3,0.4-2.8,0.6-4
		c0-0.6,0.2-1.3,0.2-1.9c0-0.2,0-0.2,0-0.4c-0.6,0-1.3,0.4-2.1,0.4c0.2-0.2,0.2-0.2,0.2-0.2c0.4-0.2,0.6-0.4,1.1-0.6
		c0.2,0,0.2-0.2,0.4-0.2c0.4-0.2,0.6-0.4,0.6-0.9c0-0.6,0.2-1.1,0-1.7s-0.2-1.3-0.4-1.9c-0.2-0.9-0.6-1.7-0.9-2.6
		c-0.2-0.9-0.6-1.5-1.1-2.3c-0.2-0.4-0.2-0.6-0.4-1.1c0.2-0.2,0.4-0.2,0.9-0.4c1.3-0.2,2.3-0.6,3.4-1.1c0.9-0.4,1.9-0.9,2.8-1.1
		c0.2,0,0.2,0,0.4-0.2c0,0.2,0,0.2,0,0.4c0,0.6,0.2,1.5,0.2,2.1c0.2,1.1,0.2,1.9,0.4,3c0,0.4,0,0.6,0.2,1.1c0,0.2,0,0.4,0.2,0.6
		c0.2,0,0.2-0.2,0.4-0.2c0.2-0.2,0.4-0.4,0.6-0.6c0.6-0.9,1.3-1.9,1.5-2.8c0.4-0.9,0.6-1.7,0.6-2.8c0.2,0,0.2,0,0.2,0
		c0.9,0.2,1.9,0.6,2.8,0.9c0.6,0.2,1.5,0.4,2.1,0.4c0.2,0,0.2,0,0.4,0.2c0,0.2-0.2,0.4-0.2,0.4c-0.9,1.1-1.5,2.3-2.3,3.4
		c-0.6,0.9-1.3,1.7-2.1,2.1c-0.4,0.4-1.1,0.6-1.5,1.1C100.6,26.3,100.6,26.5,100.6,26.5z"/>
	<path class="st0" d="M116.3,37.3c0.2-0.4,0.6-0.4,0.9-0.6c0.4-0.2,0.6-0.4,0.9-0.6l-0.2-0.2c-0.9-0.2-1.7-0.6-2.6-1.1
		c-0.9-0.4-1.5-1.1-2.1-1.7c-1.1-1.1-1.7-2.6-2.1-4c-0.4-1.7-0.4-3.6,0-5.3c0.6-2.1,1.7-3.8,3.4-5.1c0.9-0.6,1.7-0.9,2.6-1.3h0.2
		c0.2,0,0.4,0,0.2-0.2c0-0.2-0.2-0.2-0.4-0.2c-0.2,0-0.4,0-0.9,0H116c0.4-0.2,0.6-0.2,1.1-0.2c0.6,0,1.1,0,1.5,0.2h0.2
		c0.9-0.2,1.7-0.4,2.6-0.4c0.4,0,0.6,0,1.1,0c-0.4,0.2-1.1,0.6-1.7,0.9c0.2,0,0.2,0.2,0.4,0.2c0.6,0.4,1.5,0.6,2.1,1.1
		c1.5,0.9,2.6,1.9,3.4,3.4c0.2,0.2,0.2,0.4,0.4,0.9c0.9,1.5,0.9,3,0.9,4.7c0,0.4,0,0.9,0,1.3c-0.2,2.3-1.3,4-3,5.5
		c-1.3,1.1-2.8,1.9-4.5,2.6c-0.9,0.2-1.7,0.4-2.6,0.4c-0.4,0-1.1,0.2-1.5,0.2C116.8,37.6,116.6,37.6,116.3,37.3
		C116.3,37.6,116.3,37.3,116.3,37.3z M119.5,18.6l-0.2-0.2c-0.2,0-0.2,0.2-0.2,0.2c-0.2,0.2-0.4,0.6-0.6,0.9
		c-0.4,0.4-0.6,1.1-1.1,1.7c-0.2,0.6-0.4,1.1-0.6,1.7s-0.4,1.5-0.4,2.1s-0.2,1.3-0.2,2.1c0,0.4,0,0.9,0.2,1.5c0,0.6,0.2,1.5,0.4,2.1
		c0.2,0.9,0.6,1.7,1.1,2.3c0.2,0.4,0.6,0.9,0.9,1.5c0.2,0.2,0.4,0.4,0.6,0.6c0.2-0.2,0.4-0.4,0.4-0.6c0.6-0.6,1.3-1.5,1.7-2.3
		c0.4-0.9,0.6-1.7,0.9-2.6c0.2-1.1,0.2-2.3,0.4-3.4c0-0.4,0-1.1,0-1.5c0-0.9-0.4-1.7-0.6-2.6"/>
	<path class="st0" d="M77.4,37.3c0-0.2,0-0.2,0.2-0.4c0.4-0.2,1.1-0.4,1.5-0.6l0.2-0.2l-0.2-0.2c-0.6-0.2-1.3-0.6-1.9-0.9
		c-1.1-0.4-1.9-1.1-2.6-1.9c-0.4-0.4-0.6-0.6-0.9-1.1c-0.9-1.3-1.5-2.6-1.5-4.3c0-0.9,0-1.5-0.2-2.3c0-1.3,0.4-2.3,0.9-3.4
		c0.6-1.5,1.7-2.6,3.2-3.4c0.9-0.4,1.5-1.1,2.3-1.3l0,0c0-0.2-0.2-0.4-0.4-0.6c0.2,0,0.2,0,0.4,0c0.4,0,0.6,0,1.1,0.2
		c0.2,0,0.2,0,0.4,0c0.4,0,0.9-0.2,1.5-0.2s1.1-0.2,1.7-0.2c0.2,0,0.4,0,0.6,0c-0.4,0.2-0.9,0.4-1.3,0.9c0.2,0.2,0.4,0.2,0.6,0.4
		c0.4,0.2,0.9,0.4,1.1,0.4c1.9,0.9,3.2,2.3,4.3,4.3c0.6,1.3,0.9,2.6,0.9,4c0,0.4,0,1.1,0,1.5c0,1.1-0.4,2.1-0.9,3.2
		c-0.5,1.1-1.3,2.1-2.3,2.8c-1.5,1.3-3.2,2.1-5.1,2.6c-0.9,0.2-1.7,0.4-2.6,0.6C78.2,37.3,77.8,37.3,77.4,37.3z M77.1,27.3
		c0,0.6,0,1.3,0.2,1.9c0.2,1.1,0.6,2.1,1.1,3.2c0.2,0.9,0.6,1.5,1.3,2.1c0.4,0.6,0.6,0.6,1.1,0c0.9-0.9,1.5-1.9,1.9-3
		c0.9-1.7,1.1-3.4,1.1-5.3c0-1.3-0.2-2.6-0.9-3.6c-0.4-0.6-0.6-1.5-1.1-2.1c-0.2-0.6-0.9-1.1-1.3-1.7c-0.2-0.2-0.4-0.2-0.9,0
		c0,0,0,0-0.2,0.2c-1.3,1.1-1.9,2.6-2.3,4C77.1,24.6,77.1,25.8,77.1,27.3z"/>
	<path id="XMLID_5_" class="st0" d="M57.3,23.5c0,0.4,0,0.6,0.2,0.9c0.2,0.4,0.6,0.9,1.1,1.3c0,0,0.2,0.2,0.4,0
		c1.1,0,2.1-0.2,3.2-0.2c1.3,0,2.8,0,4,0.4c1.1,0.2,2.1,0.9,2.8,1.7c1.1,1.1,1.3,2.3,1.1,3.8c0,0.2,0,0.4,0.2,0.6
		c0.2,0.2,0.4,0.4,0.6,0.6v0.2c-0.4,0.4-1.1,1.1-1.5,1.5c-1.1,0.9-2.1,1.7-3.4,2.3c-1.3,0.6-2.6,0.9-3.8,0.9c-1.5,0-2.8-0.2-4-0.4
		c-0.9-0.2-1.7-0.4-2.3-0.6c-0.9-0.4-1.9-0.9-2.8-1.3c-0.2-0.2-0.7-0.2-0.9-0.6c0.4,0,0.6,0,1.1,0c1.1,0.2,2.1,0,3.2,0
		c1.3-0.2,2.6-0.2,3.8-0.4c1.7-0.4,3-1.1,4.3-2.3c0.2-0.2,0.4-0.4,0.4-0.9c0-1.3-0.4-2.3-1.3-3.2c-0.2-0.2-0.4-0.2-0.4-0.2
		c-0.4,0-0.9,0-1.3,0c-1.1,0-1.9,0-3-0.2c-0.9-0.2-1.9-0.4-2.8-0.6c-1.2-0.3-2.3-1.2-3.1-1.8c-0.9-0.7-1.1-1.5-1.1-2.6
		c0-0.6,0.2-1.1,0.2-1.7c0-0.2,0.2-0.4,0.2-0.4c0.9-0.9,1.5-1.7,2.1-3c0.2-0.2,0.2-0.6,0.4-0.9c0.2,0,0.4,0.2,0.4,0.2
		c0.4,0.2,0.9,0.4,1.1,0.6c0.2,0.2,0.4,0.2,0.6,0.2c1.1,0,2.3,0,3.4,0c0.2,0,0.4,0,0.9,0c0.6,0,1.5,0.2,2.1,0.2c0.2,0,0.2,0,0.6,0.2
		c-0.2,0-0.4,0-0.6,0.2c-0.9,0.2-1.7,0.2-2.6,0.6c-0.2,0-0.4,0.2-0.6,0.4c0.4,0.2,0.9,0.4,1.1,0.6c0.6,0.2,1.1,0.2,1.7,0.2
		c1.3,0,2.8,0,4-0.2c0.9,0,1.5-0.2,2.3-0.4c0.2,0,0.6,0,0.9,0c-1.1,1.1-2.3,2.1-3.6,2.8c-1.3,0.6-2.8,1.3-4.3,1.5
		C60.5,23.7,59,23.7,57.3,23.5z"/>
	<path class="st0" d="M179.8,20.1c2.3-0.9,4.5-2.3,6.6-3.4c0.4,0.4,0.6,0.6,0.9,1.1c0.4,0.6,0.6,1.3,1.1,1.7
		c0.4,0.9,0.9,1.5,1.1,2.6c0.2,0.6,0.4,1.3,0.6,2.1c0.2,1.1,0.4,2.3,0.2,3.4c0,1.3-0.4,2.3-0.9,3.6c-0.2,0.6-0.4,1.3-0.6,1.9
		c-0.2,0.4-0.2,0.9-0.4,1.5c-0.2,0.6-0.6,1.3-0.9,1.9l0,0c0-0.2,0-0.2,0-0.4c0-0.9,0-1.7-0.2-2.6c-0.2-1.1-0.2-2.3-0.4-3.4
		c0-0.4-0.2-0.6-0.2-1.1c0-0.2-0.2-0.4-0.2-0.6s-0.2-0.2-0.4-0.2s-0.2,0.2-0.4,0.2c-0.6,0.4-1.3,0.9-1.9,1.3
		c-0.6,0.4-1.3,0.9-1.9,1.1c-0.4,0.2-0.9,0.2-1.3,0.4c-0.2,0-0.4,0.2-0.6,0.2c-0.2,0.2-0.4,0.2-0.4,0.6c0,1.1,0,2.1,0,3.2
		c0,0.6,0,1.3,0,2.1c-0.4,0-0.9-0.2-1.3-0.2c-0.9-0.2-1.9-0.4-2.8-0.6c-0.4,0-1.1-0.2-1.5-0.2c-0.9-0.2-0.9-0.2-0.6-0.9
		c0.2-1.1,0.4-1.9,0.6-3c0,0,0,0,0-0.2l0,0c-0.6,0-1.3-0.4-1.9-0.4c-0.2,0-0.4,0-0.4,0c0.2-0.4,0.2-0.9,0.4-1.3
		c0.4-1.3,0.6-2.3,1.1-3.6c0.2-0.4,0.2-0.4,0.4-0.2c0.2,0.4,0.6,0.4,1.1,0.4c0.2,0,0.6,0,0.9,0.2c0,0,0.2,0,0.2-0.2
		c0.6-1.1,1.5-1.9,2.6-2.8c0.9-0.6,1.5-1.3,2.3-1.9c0.2-0.2,0.4-0.4,0.6-0.6c0.2-0.2,0.2-0.6,0-0.9
		C180.7,20.7,180.5,20.5,179.8,20.1C180,20.3,179.8,20.1,179.8,20.1z M181.3,27.5L181.3,27.5c0.4,0,0.6,0,1.1-0.2
		c0.6-0.2,1.3-0.2,1.9-0.4c0.4,0,0.9-0.2,1.3-0.4c0.2-0.2,0.4-0.2,0.2-0.6c-0.6-1.1-1.3-2.1-2.3-3c-0.4-0.2-0.4-0.2-0.6,0l0,0
		c-0.4,0.6-0.9,1.3-1.3,1.9c-0.2,0.6-0.6,1.1-0.9,1.7C180.7,27.5,180.7,27.5,181.3,27.5L181.3,27.5z"/>
	<path id="XMLID_2_" class="st0" d="M143.8,16.2c0,0.2,0.2,0.4,0.2,0.6c0.2,0.6,0.4,1.1,0.9,1.7c0.2,0.4,0.4,0.4,0.9,0.4
		c1.7,0,3.4-0.2,4.9-0.4c0.9-0.2,1.7-0.4,2.6-0.6c0.2,0,0.4-0.2,0.6-0.2c0.2,0,0.2,0,0.4,0l0,0c-0.2,0.2-0.6,0.4-1.1,0.6
		c-1.9,1.1-3.6,2.1-5.8,3c-0.2,0.2-0.6,0.2-0.9,0.4c-0.4,0.2-0.4,0.2-0.2,0.4c0.2,0.6,0.2,1.1,0.4,1.7c0.2,0.9,0.4,1.7,0.4,2.8
		c0,0.9,0,1.7-0.2,2.6c-0.2,1.1-0.4,2.1-0.9,3c-0.6,1.5-1.3,3-1.9,4.5c0,0.2-0.2,0.2-0.2,0.4c-1.3-0.4-6-2.8-6.2-3
		c0-0.2,0.2-0.2,0.2-0.4c0.9-0.9,1.7-1.9,2.3-3.2c0.4-0.6,0.6-1.3,1.1-1.7c0.6-1.1,1.1-2.3,1.3-3.6c0-0.4,0.2-0.9,0.2-1.5
		c0-0.2,0-0.4,0-0.4c0-0.2,0-0.2-0.2-0.2c-0.2,0-0.4,0-0.4,0c-1.1,0-1.9-0.2-3-0.2c-0.9-0.2-1.9-0.2-2.8-0.4c-0.2,0-0.2,0-0.4,0
		c-0.4-0.2-0.4-0.4-0.2-0.6c0,0,0,0,0-0.2c0.6-0.9,1.1-1.7,1.5-2.6c0.2-0.4,0.6-1.1,0.9-1.5c0.2-0.2,0.2-0.2,0.6-0.2
		c0.4,0.2,0.9,0.2,1.3,0.4c0.9,0.4,1.9,0.9,3,0.9c0.2,0,0.2,0,0.4,0s0.4-0.2,0.4-0.4c0.2-0.4,0.2-1.1,0.2-1.5
		C143.6,16.5,143.6,16.5,143.8,16.2C143.6,16.2,143.6,16.2,143.8,16.2z"/>
	<path id="XMLID_1_" class="st0" d="M192.8,36.9c0-0.6,0.2-1.1,0.2-1.7c0.2-1.5,0.4-3,0.6-4.7c0-1.1,0-2.1,0-3.2l0,0
		c0.2-1.3-0.4-2.6-0.6-3.8c-0.2-0.6-0.4-1.1-0.9-1.7c-0.2-0.6-0.6-1.3-0.9-2.1c0-0.2,0-0.2-0.2-0.4c-0.2-0.4,0-0.9,0.6-0.9
		c0.2,0,0.2,0,0.4,0c1.5-0.2,2.8-0.6,4.3-1.3c0.6-0.2,1.3-0.6,2.1-1.1h0.2c0,0,0.2,0,0.2,0.2v0.2c0,0.6,0,1.3,0,2.1
		c0,0.9,0,1.9,0,2.8c0,1.1,0,2.1-0.2,3.4c0,0.9-0.2,1.9-0.4,2.8c-0.2,0.4-0.2,1.1-0.4,1.5s-0.4,0.9-0.6,1.3
		c-0.4,1.1-1.1,1.9-1.5,2.8s-1.1,1.7-1.7,2.3C193.7,36.5,193.2,36.7,192.8,36.9C192.8,37.1,192.8,37.1,192.8,36.9z"/>
</g>
</svg>
