<?xml version="1.0" encoding="utf-8"?>
<!-- Generator: Adobe Illustrator 19.0.0, SVG Export Plug-In . SVG Version: 6.00 Build 0)  -->
<svg version="1.1" id="Layer_1" xmlns="http://www.w3.org/2000/svg" xmlns:xlink="http://www.w3.org/1999/xlink" x="0px" y="0px"
	 viewBox="-8 10 32 32" style="enable-background:new -8 10 32 32;" xml:space="preserve">
<style type="text/css">
	.st0{fill:#FFFFFF;}
</style>
<path class="st0" d="M12.9,26c0,2.7-2.2,4.9-4.9,4.9S3.1,28.7,3.1,26c0-0.4,0.1-0.9,0.2-1.3H1.8v7c0,0.2,0.2,0.4,0.4,0.4h11.5
	c0.2,0,0.4-0.2,0.4-0.4v-7h-1.5C12.8,25.1,12.9,25.6,12.9,26z"/>
<path class="st0" d="M11.6,22.9h2.2c0.2,0,0.4-0.2,0.4-0.4v-2.2c0-0.2-0.2-0.4-0.4-0.4h-2.2c-0.2,0-0.4,0.2-0.4,0.4v2.2
	C11.1,22.7,11.3,22.9,11.6,22.9z"/>
<ellipse class="st0" cx="8" cy="26" rx="3.1" ry="3.1"/>
<path class="st0" d="M-8,10v32h32V10H-8z M16,32.1c0,1-0.9,1.9-1.9,1.9H1.9c-1,0-1.9-0.8-1.9-1.9V19.9C0,18.8,0.9,18,1.9,18h12.2
	c1,0,1.9,0.8,1.9,1.9V32.1z"/>
</svg>
